<svg width="1024px" height="1024px" viewBox="0 0 1024 1024" version="1.1" xmlns="http://www.w3.org/2000/svg" xmlns:xlink="http://www.w3.org/1999/xlink">
    <defs>
        <linearGradient x1="58.5801439%" y1="8.4905977%" x2="50%" y2="97.7352782%" id="linearGradient-1">
            <stop stop-color="#FFFFFF" offset="0%"></stop>
            <stop stop-color="#B12FB1" offset="59.2156151%"></stop>
            <stop stop-color="#F92ECC" offset="100%"></stop>
        </linearGradient>
        <path d="M126.629124,15.1988439 C155.200744,-32.8321146 283.730449,40.9933344 418.925999,124.753531 C554.121549,208.513728 650.359811,294.085188 639.168187,328.167594 C627.976563,362.25 470.550543,462.405264 304.707249,551.519156 C138.863955,640.633048 17.5431865,688.886344 0.808811511,641.417594 C-15.9255635,593.948844 232.285709,472.771598 257.386937,327.167594 C282.488164,181.56359 98.0575039,63.2298024 126.629124,15.1988439 Z" id="path-2"></path>
        <linearGradient x1="79.1123807%" y1="0%" x2="50%" y2="100%" id="linearGradient-5">
            <stop stop-color="#9D1C9D" offset="0%"></stop>
            <stop stop-color="#B422B4" offset="100%"></stop>
        </linearGradient>
        <path d="M350.115135,521.29701 C468.299665,487.283535 546.822904,461.97587 585.684854,445.374015 C624.546804,428.77216 649.369395,409.930407 660.152625,388.848755 C602.760846,378.002587 541.392277,372.579502 476.046919,372.579502 C409.0996,372.579502 319.134771,383.200783 206.15243,404.443345 L17.4652059,512.959863 C88.0376078,521.62035 137.966566,526.477803 167.25208,527.532224 C224.026808,529.57639 284.98116,527.497985 350.115135,521.29701 Z" id="path-6"></path>
        <path d="M126.629124,15.1988439 C155.200744,-32.8321146 283.730449,40.9933344 418.925999,124.753531 C554.121549,208.513728 650.930123,282.741438 639.168187,328.167594 C627.40625,373.59375 470.550543,462.405264 304.707249,551.519156 C138.863955,640.633048 17.5431865,688.886344 0.808811511,641.417594 C-15.9255635,593.948844 232.285709,472.771598 257.386937,327.167594 C282.488164,181.56359 98.0575039,63.2298024 126.629124,15.1988439 Z" id="path-8"></path>
        <path d="M131.629124,15.1988439 C160.200744,-32.8321146 288.730449,40.9933344 423.925999,124.753531 C559.121549,208.513728 655.930123,282.741438 644.168187,328.167594 C632.40625,373.59375 475.550543,462.405264 309.707249,551.519156 C143.863955,640.633048 22.5431865,688.886344 5.80881151,641.417594 C-10.9255635,593.948844 237.285709,472.771598 262.386937,327.167594 C287.488164,181.56359 103.057504,63.2298024 131.629124,15.1988439 Z" id="path-10"></path>
    </defs>
    <g id="Desktop" stroke="none" stroke-width="1" fill="none" fill-rule="evenodd">
        <g id="Group" transform="translate(217.000000, 160.000000)">
            <g id="Group-2" transform="translate(5.000000, 0.000000)">
                <mask id="mask-3" fill="white">
                    <use xlink:href="#path-2"></use>
                </mask>
                <g id="Path" fill-rule="nonzero">
                    <use fill="black" fill-opacity="1" filter="url(#filter-4)" xlink:href="#path-2"></use>
                    <use fill="url(#linearGradient-1)" xlink:href="#path-2"></use>
                </g>
                <mask id="mask-7" fill="white">
                    <use xlink:href="#path-6"></use>
                </mask>
                <use id="Oval" fill="url(#linearGradient-5)" fill-rule="nonzero" transform="translate(338.808916, 450.435961) rotate(-13.000000) translate(-338.808916, -450.435961) " xlink:href="#path-6"></use>
            </g>
            <mask id="mask-9" fill="white">
                <use xlink:href="#path-8"></use>
            </mask>
            <path stroke="#A91BA9" stroke-width="7" d="M129.637151,16.9881941 C123.907932,26.6194247 127.903144,40.7435271 141.798129,62.3339019 C147.495589,71.1867591 154.368225,80.6868729 165.517427,95.3847625 C167.698007,98.2594011 177.154297,110.661454 179.674571,113.984021 C185.382094,121.508452 190.030261,127.727162 194.504594,133.857782 C218.640979,166.928854 235.429789,194.643185 247.094956,223.2244 C261.667396,258.928822 266.752311,293.443957 260.836058,327.762201 C255.353635,359.563943 239.320805,391.613754 213.806674,424.728991 C192.831377,451.953195 166.36418,478.933847 132.037894,509.446094 C117.864173,522.044954 107.827376,530.596592 81.439671,552.787207 C59.0904198,571.581704 48.7706843,580.447583 38.3510506,590.034269 C11.6230136,614.625661 0.649851082,630.439709 4.1096987,640.253917 C11.2262392,660.440705 41.871908,661.866361 95.7606996,644.358144 C145.710851,628.129574 214.365567,596.089887 303.050586,548.436063 C405.356163,493.463396 473.951792,454.745552 527.841273,420.506317 C593.65396,378.69155 630.601871,347.288609 635.779922,327.29029 C640.945989,307.338255 622.624211,279.174665 581.850338,243.468931 C544.985976,211.186761 490.515591,173.22404 417.082681,127.728792 C331.210363,74.5267287 276.937437,43.6085762 231.395405,23.7630997 C175.741472,-0.488756906 141.678054,-3.25343502 129.637151,16.9881941 Z"></path>
            <mask id="mask-11" fill="white">
                <use xlink:href="#path-10"></use>
            </mask>
            <use id="Path" stroke="#000000" stroke-width="10" fill-rule="nonzero" xlink:href="#path-10"></use>
        </g>
    </g>
</svg>